<svg xmlns="http://www.w3.org/2000/svg" version="1.1" xmlns:xlink="http://www.w3.org/1999/xlink" xmlns:svgjs="http://svgjs.dev/svgjs" width="392" height="244"><svg xmlns="http://www.w3.org/2000/svg" xmlns:xlink="http://www.w3.org/1999/xlink" width="392" zoomAndPan="magnify" viewBox="0 0 294 183.000001" height="244" preserveAspectRatio="xMidYMid meet" version="1.0"><defs><clipPath id="SvgjsClipPath1017"><path d="M 208.398438 75 L 282 75 L 282 143 L 208.398438 143 Z M 208.398438 75 " clip-rule="nonzero"></path></clipPath><clipPath id="SvgjsClipPath1016"><path d="M 88 2 L 203 2 L 203 181 L 88 181 Z M 88 2 " clip-rule="nonzero"></path></clipPath><clipPath id="SvgjsClipPath1015"><path d="M 52.152344 38.984375 L 196.15625 0 L 234.945312 143.28125 L 90.945312 182.265625 Z M 52.152344 38.984375 " clip-rule="nonzero"></path></clipPath><clipPath id="SvgjsClipPath1014"><path d="M 52.152344 38.984375 L 196.15625 0 L 234.945312 143.28125 L 90.945312 182.265625 Z M 52.152344 38.984375 " clip-rule="nonzero"></path></clipPath><clipPath id="SvgjsClipPath1013"><path d="M 52.207031 38.972656 L 196.101562 0.015625 L 234.800781 142.964844 L 90.90625 181.921875 Z M 52.207031 38.972656 " clip-rule="nonzero"></path></clipPath></defs><path fill="#000000" d="M 76.210938 163.976562 C 74.265625 165.488281 71.3125 165.128906 69.800781 163.113281 C 48.097656 141.0625 26.515625 118.589844 7.859375 93.753906 C 0.804688 87.578125 6.140625 76.265625 13.441406 84.757812 C 34.058594 109.847656 55.359375 133.902344 77.289062 157.714844 C 78.578125 159.738281 78.125 162.460938 76.210938 163.976562 Z M 76.210938 163.976562 " fill-opacity="1" fill-rule="nonzero"></path><path fill="#000000" d="M 81.523438 161.875 C 78.28125 163.386719 75.617188 160.367188 73.453125 158.417969 C 52.640625 137.675781 33.078125 115.578125 14.898438 92.519531 C 13.53125 90.644531 13.671875 88.054688 15.261719 86.398438 C 22.4375 81.464844 27.390625 94.273438 32.179688 97.789062 C 49.765625 116.761719 63.855469 137.859375 83.175781 154.460938 C 85.089844 156.851562 84.4375 160.570312 81.523438 161.875 Z M 81.523438 161.875 " fill-opacity="1" fill-rule="nonzero"></path><path fill="#000000" d="M 79.375 147.742188 C 78.078125 149.398438 75.84375 149.90625 73.898438 149.183594 C 63.261719 138.421875 52.902344 126.449219 42.351562 115.191406 C 33.699219 105.566406 25.59375 95.589844 17.863281 85.300781 C 16.277344 83.351562 16.710938 80.402344 18.65625 78.882812 C 20.742188 77.304688 23.480469 77.804688 25.140625 79.679688 C 33.425781 88.910156 41.808594 98.269531 49.808594 107.621094 C 59.761719 119.128906 70.214844 129.976562 79.375 142.121094 C 80.53125 143.863281 80.660156 146.03125 79.375 147.742188 Z M 79.375 147.742188 " fill-opacity="1" fill-rule="nonzero"></path><path fill="#000000" d="M 84.820312 45.351562 L 84.820312 45.425781 C 84.339844 47.003906 82.691406 48.371094 81.042969 48.507812 C 62.464844 69.800781 41.691406 90.464844 18.050781 105.855469 C 15.605469 106.789062 13.15625 105.136719 12.21875 102.90625 C 11.496094 100.957031 12.363281 99.015625 13.730469 97.570312 C 27.460938 87.066406 41.195312 74.234375 53.632812 62.640625 C 59.851562 58.277344 82.871094 25.867188 84.820312 45.351562 Z M 84.820312 45.351562 " fill-opacity="1" fill-rule="nonzero"></path><path fill="#000000" d="M 78.917969 31.347656 C 63.257812 57.855469 41.894531 80.011719 17.699219 98.949219 C 15.636719 100.335938 12.671875 99.859375 11.261719 97.6875 C 9.203125 94.527344 11.675781 91.664062 14.246094 89.796875 C 27.25 77.640625 40.007812 66.054688 51.695312 52.789062 C 59.5 44.160156 65.625 35.050781 71.84375 25.472656 C 75.585938 21.496094 82.097656 26.847656 78.921875 31.347656 Z M 78.917969 31.347656 " fill-opacity="1" fill-rule="nonzero"></path><path fill="#000000" d="M 69.710938 25.957031 C 56.367188 50.746094 38.066406 72.59375 18.285156 92.441406 C 16.484375 93.949219 13.816406 93.882812 12.089844 92.296875 C 10.433594 90.78125 9.929688 87.976562 11.367188 86.171875 C 26.480469 67.363281 43.671875 49.53125 57.203125 29.632812 C 58.917969 26.796875 60.027344 24.5625 61.496094 21.78125 C 64.160156 16.4375 72.476562 20.703125 69.707031 25.957031 Z M 69.710938 25.957031 " fill-opacity="1" fill-rule="nonzero"></path><path fill="#000000" d="M 217.277344 17.960938 C 219.222656 16.449219 222.175781 16.808594 223.6875 18.824219 C 245.390625 40.875 266.972656 63.351562 285.628906 88.1875 C 292.683594 94.363281 287.34375 105.675781 280.046875 97.179688 C 259.429688 72.09375 238.128906 48.035156 216.199219 24.222656 C 214.910156 22.199219 215.363281 19.476562 217.277344 17.960938 Z M 217.277344 17.960938 " fill-opacity="1" fill-rule="nonzero"></path><path fill="#000000" d="M 211.964844 20.0625 C 215.207031 18.550781 217.871094 21.570312 220.03125 23.519531 C 240.847656 44.265625 260.410156 66.363281 278.589844 89.417969 C 279.957031 91.296875 279.8125 93.882812 278.226562 95.542969 C 271.050781 100.476562 266.097656 87.664062 261.308594 84.148438 C 243.722656 65.179688 229.632812 44.078125 210.308594 27.476562 C 208.394531 25.085938 209.050781 21.367188 211.964844 20.0625 Z M 211.964844 20.0625 " fill-opacity="1" fill-rule="nonzero"></path><path fill="#000000" d="M 214.113281 34.199219 C 215.410156 32.542969 217.640625 32.03125 219.589844 32.757812 C 230.226562 43.515625 240.585938 55.488281 251.132812 66.75 C 259.789062 76.375 267.894531 86.347656 275.625 96.640625 C 277.210938 98.589844 276.777344 101.539062 274.832031 103.054688 C 272.742188 104.632812 270.003906 104.132812 268.347656 102.257812 C 260.058594 93.03125 251.679688 83.671875 243.679688 74.316406 C 233.726562 62.8125 223.273438 51.960938 214.113281 39.816406 C 212.957031 38.074219 212.828125 35.910156 214.113281 34.199219 Z M 214.113281 34.199219 " fill-opacity="1" fill-rule="nonzero"></path><g clip-path="url(#401345e098)"><path fill="#000000" d="M 208.664062 136.585938 L 208.664062 136.515625 C 209.148438 134.933594 210.796875 133.566406 212.441406 133.429688 C 231.019531 112.136719 251.796875 91.476562 275.433594 76.085938 C 277.882812 75.148438 280.332031 76.800781 281.265625 79.035156 C 281.988281 80.984375 281.125 82.921875 279.757812 84.367188 C 266.023438 94.875 252.289062 107.703125 239.851562 119.300781 C 233.636719 123.664062 210.613281 156.074219 208.664062 136.585938 Z M 208.664062 136.585938 " fill-opacity="1" fill-rule="nonzero"></path></g><path fill="#000000" d="M 214.570312 150.59375 C 230.230469 124.082031 251.59375 101.925781 275.789062 82.988281 C 277.851562 81.601562 280.816406 82.078125 282.226562 84.253906 C 284.28125 87.414062 281.8125 90.277344 279.242188 92.144531 C 266.238281 104.296875 253.480469 115.886719 241.792969 129.152344 C 233.984375 137.78125 227.859375 146.886719 221.644531 156.46875 C 217.902344 160.441406 211.390625 155.089844 214.566406 150.59375 Z M 214.570312 150.59375 " fill-opacity="1" fill-rule="nonzero"></path><path fill="#000000" d="M 223.777344 155.980469 C 237.121094 131.195312 255.421875 109.34375 275.203125 89.496094 C 277.003906 87.988281 279.667969 88.054688 281.398438 89.640625 C 283.054688 91.15625 283.558594 93.960938 282.117188 95.765625 C 267.007812 114.574219 249.8125 132.410156 236.285156 152.304688 C 234.566406 155.144531 233.460938 157.375 231.988281 160.15625 C 229.328125 165.5 221.011719 161.238281 223.777344 155.980469 Z M 223.777344 155.980469 " fill-opacity="1" fill-rule="nonzero"></path><g clip-path="url(#3cd0d1aaf6)"><g clip-path="url(#d05775e4e4)"><g clip-path="url(#b52447d3ca)"><g clip-path="url(#1d1bd726a5)"><path fill="#000000" d="M 102.082031 145.847656 C 102.929688 144.421875 103.835938 143.230469 104.527344 142.398438 C 105.222656 141.566406 105.695312 141.089844 105.695312 141.089844 C 105.695312 141.089844 104.539062 143.433594 102.855469 146.257812 C 101.167969 149.085938 99.578125 151.367188 99.578125 151.367188 C 99.578125 151.367188 99.78125 150.703125 100.191406 149.679688 C 100.605469 148.65625 101.234375 147.273438 102.082031 145.847656 Z M 200.207031 26.414062 C 200.199219 27.8125 200.003906 29.214844 199.65625 30.589844 C 198.957031 33.339844 197.652344 35.941406 196.144531 38.414062 C 195.136719 40.039062 194.035156 41.613281 192.894531 43.171875 C 193.414062 42.246094 193.925781 41.308594 194.398438 40.351562 C 195.6875 37.714844 196.785156 34.949219 197.488281 32.050781 L 197.625 31.507812 L 197.738281 30.960938 C 197.808594 30.59375 197.890625 30.230469 197.957031 29.859375 C 198.066406 29.121094 198.195312 28.382812 198.25 27.632812 C 198.339844 26.890625 198.351562 26.125 198.378906 25.367188 C 198.378906 24.988281 198.359375 24.609375 198.351562 24.230469 L 198.332031 23.660156 L 198.277344 23.09375 C 198.019531 20.113281 197.195312 17.171875 195.785156 14.5 C 195.828125 14.296875 195.871094 14.09375 195.90625 13.886719 C 195.914062 13.851562 195.917969 13.816406 195.925781 13.78125 C 196.035156 13.976562 196.144531 14.167969 196.257812 14.359375 C 197.6875 16.894531 198.976562 19.496094 199.679688 22.242188 C 200.023438 23.613281 200.230469 25.011719 200.207031 26.414062 Z M 150.183594 91.773438 C 148.085938 93.835938 146.027344 95.945312 144.097656 98.167969 C 142.167969 100.394531 140.355469 102.726562 138.824219 105.246094 C 138.289062 106.128906 137.949219 106.929688 137.75 107.550781 C 137.730469 107.609375 137.722656 107.652344 137.710938 107.707031 C 137.183594 107.476562 136.679688 107.242188 136.199219 106.996094 C 136.003906 106.894531 135.804688 106.785156 135.605469 106.683594 C 135.785156 106.503906 135.976562 106.304688 136.183594 106.078125 L 137.457031 104.675781 C 137.882812 104.207031 138.328125 103.753906 138.765625 103.292969 C 139.640625 102.375 140.5 101.445312 141.382812 100.527344 C 142.273438 99.617188 143.160156 98.703125 144.054688 97.789062 C 144.941406 96.871094 145.859375 95.976562 146.757812 95.066406 C 150.375 91.433594 154.054688 87.820312 157.757812 84.179688 C 158.515625 83.433594 159.273438 82.6875 160.027344 81.9375 C 156.800781 85.273438 153.511719 88.542969 150.183594 91.773438 Z M 138.328125 112.667969 C 137.917969 113.535156 137.492188 114.394531 137.035156 115.242188 C 136.675781 115.914062 136.289062 116.574219 135.886719 117.226562 C 135.839844 117.207031 135.789062 117.183594 135.738281 117.164062 C 135.585938 117.097656 135.417969 117.027344 135.242188 116.949219 C 135.582031 116.308594 135.949219 115.625 136.332031 114.914062 C 137.320312 113.082031 138.191406 111.46875 138.773438 110.398438 C 138.914062 110.453125 139.058594 110.511719 139.207031 110.574219 C 139.011719 111.121094 138.785156 111.707031 138.328125 112.667969 Z M 132.042969 119.507812 C 132.195312 119.234375 132.386719 118.894531 132.613281 118.484375 C 132.636719 118.441406 132.664062 118.390625 132.691406 118.34375 C 132.824219 118.378906 132.957031 118.414062 133.089844 118.441406 C 132.9375 118.96875 132.832031 119.394531 132.765625 119.683594 C 132.742188 119.679688 132.714844 119.671875 132.6875 119.667969 C 132.476562 119.621094 132.25 119.558594 132.042969 119.507812 Z M 131.269531 122.058594 L 131.246094 122.109375 L 131.234375 122.136719 L 131.226562 122.152344 C 131.21875 122.164062 131.238281 122.132812 131.195312 122.203125 L 130.449219 123.445312 C 130.347656 123.40625 130.222656 123.355469 130.085938 123.304688 C 130.09375 123.007812 130.085938 122.730469 130.066406 122.492188 C 130.269531 122.546875 130.386719 122.578125 130.386719 122.578125 C 130.386719 122.578125 130.269531 122.496094 130.054688 122.359375 C 130.023438 121.992188 129.972656 121.722656 129.949219 121.601562 L 130.757812 121.859375 C 130.839844 121.886719 130.929688 121.90625 131.015625 121.933594 L 131.078125 121.949219 L 131.085938 121.949219 L 131.101562 121.953125 C 131.128906 121.957031 131.132812 121.957031 131.144531 121.957031 L 131.300781 121.964844 C 131.308594 121.964844 131.304688 121.96875 131.304688 121.972656 Z M 121.710938 137.929688 C 121.457031 138.117188 121.0625 138.417969 120.558594 138.808594 C 120.359375 138.964844 120.140625 139.132812 119.910156 139.3125 C 119.863281 139.132812 119.820312 138.964844 119.777344 138.832031 C 119.699219 138.570312 119.644531 138.394531 119.621094 138.320312 C 120.046875 137.996094 120.433594 137.671875 120.78125 137.363281 C 120.730469 137.605469 120.707031 137.742188 120.707031 137.742188 C 120.707031 137.742188 120.792969 137.550781 120.945312 137.210938 C 121.257812 136.929688 121.535156 136.652344 121.769531 136.40625 C 122.136719 136.023438 122.417969 135.707031 122.601562 135.476562 C 122.785156 135.25 122.886719 135.125 122.886719 135.125 C 122.886719 135.125 122.75 135.21875 122.5 135.382812 C 122.257812 135.550781 121.902344 135.792969 121.464844 136.09375 C 121.457031 136.097656 121.449219 136.105469 121.441406 136.109375 C 121.484375 136.015625 121.527344 135.917969 121.570312 135.820312 C 121.878906 135.601562 122.152344 135.386719 122.378906 135.195312 C 122.71875 134.902344 122.980469 134.65625 123.148438 134.476562 C 123.320312 134.300781 123.414062 134.203125 123.414062 134.203125 C 123.414062 134.203125 122.914062 134.449219 122.113281 134.84375 C 122.070312 134.863281 122.023438 134.886719 121.980469 134.910156 C 122.085938 134.671875 122.199219 134.429688 122.3125 134.171875 C 122.5625 134.066406 122.796875 133.964844 123.003906 133.871094 C 123.742188 133.53125 124.179688 133.285156 124.179688 133.285156 C 124.179688 133.285156 123.660156 133.328125 122.847656 133.460938 C 122.773438 133.472656 122.695312 133.484375 122.613281 133.5 C 122.71875 133.265625 122.828125 133.023438 122.9375 132.777344 C 123.105469 132.742188 123.265625 132.703125 123.410156 132.664062 C 124.203125 132.460938 124.671875 132.28125 124.671875 132.28125 C 124.671875 132.28125 124.152344 132.246094 123.328125 132.234375 C 123.28125 132.234375 123.230469 132.234375 123.183594 132.234375 C 123.308594 131.960938 123.433594 131.679688 123.5625 131.394531 C 123.585938 131.390625 123.609375 131.390625 123.632812 131.386719 C 124.101562 131.320312 124.476562 131.253906 124.734375 131.195312 C 124.988281 131.140625 125.128906 131.109375 125.128906 131.109375 C 125.128906 131.109375 124.601562 131.046875 123.753906 130.964844 C 123.773438 130.925781 123.789062 130.890625 123.804688 130.851562 C 123.902344 130.632812 123.996094 130.417969 124.089844 130.203125 C 124.15625 130.203125 124.222656 130.199219 124.28125 130.199219 C 124.914062 130.175781 125.390625 130.136719 125.65625 130.109375 C 125.648438 130.136719 125.636719 130.164062 125.628906 130.1875 C 125.527344 130.457031 125.472656 130.605469 125.472656 130.605469 C 125.472656 130.605469 125.570312 130.476562 125.753906 130.242188 C 125.785156 130.195312 125.824219 130.144531 125.863281 130.089844 C 125.886719 130.085938 125.898438 130.085938 125.898438 130.085938 C 125.898438 130.085938 125.886719 130.082031 125.871094 130.078125 C 126.035156 129.851562 126.230469 129.558594 126.445312 129.191406 C 126.492188 129.109375 126.542969 129.019531 126.589844 128.933594 C 126.589844 128.933594 126.59375 128.933594 126.59375 128.933594 C 126.59375 128.933594 126.59375 128.933594 126.589844 128.933594 C 126.796875 128.5625 127.003906 128.136719 127.203125 127.65625 C 127.472656 127.652344 127.710938 127.644531 127.921875 127.632812 L 126.964844 129.226562 C 125.210938 132.125 123.460938 135.027344 121.710938 137.929688 Z M 120.542969 141.476562 C 120.480469 141.539062 120.421875 141.605469 120.355469 141.675781 C 120.296875 141.195312 120.226562 140.746094 120.144531 140.351562 C 120.121094 140.226562 120.097656 140.109375 120.070312 139.996094 C 120.375 139.675781 120.648438 139.375 120.882812 139.101562 C 121.039062 138.925781 121.175781 138.761719 121.296875 138.613281 C 121.261719 138.675781 121.222656 138.738281 121.183594 138.800781 C 120.96875 139.695312 120.753906 140.585938 120.542969 141.476562 Z M 102.644531 175.121094 C 102.011719 175.550781 101.363281 175.988281 100.726562 176.394531 C 100.085938 176.800781 99.449219 177.179688 98.792969 177.464844 C 98.132812 177.75 97.457031 177.941406 96.777344 177.984375 C 96.316406 178.007812 95.851562 177.957031 95.398438 177.839844 C 95.488281 177.785156 95.585938 177.726562 95.691406 177.660156 C 95.835938 177.570312 95.996094 177.472656 96.167969 177.363281 C 96.339844 177.25 96.523438 177.125 96.71875 176.992188 C 97.113281 176.722656 97.566406 176.421875 98.039062 176.054688 C 98.125 175.988281 98.21875 175.917969 98.308594 175.851562 C 98.90625 175.847656 99.457031 175.796875 99.941406 175.730469 C 99.664062 175.949219 99.402344 176.144531 99.171875 176.320312 C 98.910156 176.527344 98.679688 176.695312 98.492188 176.832031 C 98.117188 177.113281 97.90625 177.269531 97.90625 177.269531 C 97.90625 177.269531 98.144531 177.15625 98.570312 176.945312 C 98.78125 176.84375 99.039062 176.710938 99.335938 176.546875 C 99.628906 176.386719 99.964844 176.207031 100.324219 175.984375 C 100.570312 175.84375 100.832031 175.683594 101.097656 175.511719 C 101.332031 175.457031 101.527344 175.40625 101.675781 175.359375 C 101.902344 175.289062 102.027344 175.25 102.027344 175.25 C 102.027344 175.25 101.894531 175.242188 101.648438 175.226562 C 101.621094 175.222656 101.582031 175.222656 101.554688 175.21875 C 101.949219 174.957031 102.363281 174.671875 102.796875 174.363281 C 103.6875 173.703125 104.632812 172.9375 105.558594 172.070312 C 105.941406 171.710938 106.304688 171.351562 106.648438 170.992188 C 107.472656 170.664062 108.183594 170.316406 108.761719 170 C 108.816406 169.972656 108.859375 169.945312 108.910156 169.917969 C 108.851562 170.015625 108.792969 170.109375 108.742188 170.191406 C 108.710938 170.242188 108.6875 170.285156 108.660156 170.332031 C 106.816406 172.09375 104.769531 173.664062 102.644531 175.121094 Z M 99.574219 174.839844 C 99.917969 174.570312 100.253906 174.265625 100.601562 173.949219 C 101.367188 173.835938 102.054688 173.675781 102.644531 173.511719 C 102.53125 173.609375 102.414062 173.710938 102.300781 173.808594 C 101.710938 174.304688 101.15625 174.765625 100.648438 175.171875 C 100.644531 175.171875 100.636719 175.171875 100.628906 175.167969 C 100.238281 175.148438 99.78125 175.117188 99.277344 175.085938 C 99.378906 175.003906 99.472656 174.925781 99.574219 174.839844 Z M 102.472656 172.125 C 102.945312 172.050781 103.425781 171.960938 103.914062 171.847656 C 104.199219 171.785156 104.472656 171.710938 104.738281 171.636719 C 104.277344 172.0625 103.824219 172.472656 103.382812 172.863281 C 103.320312 172.871094 103.265625 172.875 103.203125 172.882812 C 102.738281 172.925781 102.191406 172.972656 101.585938 173.023438 C 101.882812 172.734375 102.175781 172.433594 102.472656 172.125 Z M 103.863281 170.585938 C 103.898438 170.582031 103.929688 170.574219 103.964844 170.570312 C 104.863281 170.371094 105.820312 170.066406 106.785156 169.671875 C 106.546875 169.910156 106.300781 170.152344 106.046875 170.398438 C 105.308594 170.605469 104.511719 170.816406 103.667969 171.007812 C 103.59375 171.027344 103.523438 171.039062 103.449219 171.058594 C 103.585938 170.902344 103.726562 170.75 103.863281 170.585938 Z M 107.636719 166.332031 C 108.265625 166.007812 108.84375 165.660156 109.378906 165.304688 C 109.269531 165.476562 109.164062 165.636719 109.058594 165.789062 C 108.640625 166.414062 108.296875 166.914062 108.050781 167.25 C 107.804688 167.59375 107.671875 167.78125 107.671875 167.78125 C 107.671875 167.78125 107.847656 167.621094 108.160156 167.332031 C 108.476562 167.039062 108.914062 166.601562 109.429688 166.027344 C 109.886719 165.515625 110.402344 164.882812 110.929688 164.15625 C 111.289062 163.859375 111.609375 163.574219 111.886719 163.308594 C 112.34375 162.867188 112.695312 162.496094 112.929688 162.21875 C 112.882812 162.328125 112.835938 162.4375 112.785156 162.546875 C 112.015625 164.230469 111.242188 165.753906 110.558594 167.019531 C 110.238281 167.171875 109.898438 167.332031 109.539062 167.496094 C 109.601562 167.402344 109.675781 167.304688 109.734375 167.214844 C 110.195312 166.546875 110.542969 165.996094 110.765625 165.601562 C 110.992188 165.214844 111.117188 165 111.117188 165 C 111.117188 165 110.949219 165.191406 110.648438 165.535156 C 110.351562 165.882812 109.914062 166.371094 109.367188 166.976562 C 109.078125 167.296875 108.753906 167.648438 108.402344 168.019531 C 107.792969 168.292969 107.152344 168.574219 106.484375 168.851562 C 105.886719 169.101562 105.300781 169.324219 104.734375 169.527344 C 105.460938 168.605469 106.097656 167.683594 106.675781 166.78125 C 106.992188 166.640625 107.3125 166.492188 107.636719 166.332031 Z M 109.421875 162.609375 C 110.160156 162.132812 110.839844 161.644531 111.460938 161.167969 C 111.472656 161.351562 111.484375 161.457031 111.484375 161.457031 C 111.484375 161.457031 111.546875 161.296875 111.652344 161.015625 C 111.769531 160.925781 111.882812 160.835938 111.996094 160.746094 C 111.425781 161.875 110.84375 162.910156 110.296875 163.824219 C 109.488281 164.324219 108.550781 164.867188 107.523438 165.402344 C 107.707031 165.070312 107.886719 164.75 108.0625 164.4375 C 108.238281 164.117188 108.390625 163.796875 108.546875 163.496094 C 108.632812 163.328125 108.714844 163.164062 108.792969 163.003906 C 109 162.875 109.210938 162.746094 109.421875 162.609375 Z M 111.386719 159.714844 C 111.410156 159.703125 111.429688 159.6875 111.453125 159.675781 C 111.441406 159.878906 111.4375 160.070312 111.433594 160.25 C 110.816406 160.660156 110.148438 161.097656 109.445312 161.554688 C 109.59375 161.207031 109.71875 160.878906 109.835938 160.578125 C 110.34375 160.3125 110.863281 160.027344 111.386719 159.714844 Z M 112.554688 157.875 C 112.796875 156.6875 112.894531 155.628906 112.929688 154.96875 C 113.203125 154.777344 113.480469 154.582031 113.757812 154.375 C 113.359375 155.667969 113.042969 156.855469 112.808594 157.8125 C 112.71875 157.871094 112.621094 157.929688 112.527344 157.988281 C 112.535156 157.949219 112.542969 157.914062 112.554688 157.875 Z M 115.761719 150.011719 C 116.523438 149.21875 117.210938 148.429688 117.808594 147.683594 C 117.515625 148.59375 117.179688 149.730469 116.867188 151.003906 C 116.378906 151.359375 115.851562 151.742188 115.292969 152.15625 C 115.488281 151.355469 115.644531 150.628906 115.761719 150.011719 Z M 119.699219 143.125 C 119.683594 143.597656 119.660156 144.089844 119.625 144.59375 C 119.476562 144.765625 119.3125 144.949219 119.140625 145.144531 C 119.101562 145.1875 119.058594 145.234375 119.019531 145.277344 C 119.085938 144.8125 119.140625 144.328125 119.171875 143.828125 C 119.363281 143.585938 119.539062 143.351562 119.699219 143.125 Z M 116.761719 145.324219 C 116.804688 144.886719 116.828125 144.414062 116.808594 143.914062 C 116.796875 143.589844 116.765625 143.28125 116.726562 142.984375 C 117.0625 142.734375 117.398438 142.46875 117.738281 142.183594 C 117.957031 142.003906 118.167969 141.820312 118.371094 141.640625 C 118.363281 142.203125 118.347656 142.792969 118.324219 143.398438 C 118.316406 143.535156 118.3125 143.671875 118.304688 143.804688 C 117.832031 144.28125 117.3125 144.789062 116.761719 145.324219 Z M 116.332031 141.152344 C 116.242188 140.855469 116.15625 140.613281 116.085938 140.429688 C 116.792969 140.105469 117.570312 139.699219 118.351562 139.203125 C 118.367188 139.613281 118.371094 140.058594 118.378906 140.53125 C 117.980469 140.851562 117.570312 141.1875 117.144531 141.539062 C 116.945312 141.703125 116.753906 141.867188 116.5625 142.027344 C 116.492188 141.703125 116.410156 141.40625 116.332031 141.152344 Z M 118.480469 137.410156 C 118.675781 137.339844 118.875 137.265625 119.074219 137.1875 C 119.046875 137.394531 119.027344 137.570312 119.011719 137.730469 C 118.886719 137.8125 118.761719 137.894531 118.632812 137.976562 C 118.582031 137.765625 118.53125 137.578125 118.480469 137.410156 Z M 119.238281 137.578125 C 119.292969 137.421875 119.355469 137.238281 119.421875 137.042969 C 120.03125 136.777344 120.578125 136.472656 121.058594 136.167969 C 121.035156 136.25 121.015625 136.332031 120.996094 136.410156 C 120.484375 136.757812 119.890625 137.152344 119.238281 137.578125 Z M 119.722656 142.351562 C 119.710938 142.359375 119.699219 142.371094 119.691406 142.382812 C 119.542969 142.539062 119.378906 142.707031 119.210938 142.878906 C 119.222656 142.199219 119.191406 141.546875 119.136719 140.9375 C 119.339844 140.742188 119.527344 140.554688 119.710938 140.367188 C 119.710938 140.386719 119.710938 140.398438 119.710938 140.417969 C 119.734375 140.980469 119.730469 141.636719 119.722656 142.351562 Z M 118.546875 149.785156 C 118.386719 149.902344 118.21875 150.023438 118.035156 150.15625 C 117.972656 150.203125 117.898438 150.253906 117.832031 150.300781 C 117.910156 149.886719 117.976562 149.488281 118.039062 149.113281 C 118.140625 148.84375 118.25 148.527344 118.367188 148.160156 C 118.527344 147.644531 118.691406 147.027344 118.832031 146.34375 C 119.078125 146.003906 119.304688 145.679688 119.507812 145.382812 C 119.53125 145.347656 119.554688 145.3125 119.578125 145.277344 C 119.570312 145.339844 119.566406 145.398438 119.5625 145.460938 C 119.558594 145.515625 119.550781 145.566406 119.546875 145.617188 C 119.214844 147.007812 118.882812 148.398438 118.546875 149.785156 Z M 117.238281 154.871094 C 117.121094 154.949219 116.984375 155.042969 116.828125 155.152344 C 117 154.425781 117.175781 153.648438 117.34375 152.835938 C 117.46875 152.234375 117.585938 151.652344 117.6875 151.09375 C 117.921875 150.875 118.144531 150.660156 118.347656 150.464844 C 118.363281 150.449219 118.378906 150.433594 118.398438 150.414062 C 118.375 150.507812 118.351562 150.597656 118.332031 150.691406 C 117.984375 152.09375 117.628906 153.492188 117.238281 154.871094 Z M 113.609375 162.847656 C 114.160156 161.632812 114.601562 160.4375 114.957031 159.332031 C 115.277344 158.296875 115.523438 157.347656 115.699219 156.523438 C 115.757812 156.472656 115.808594 156.421875 115.863281 156.375 C 115.796875 156.914062 115.738281 157.417969 115.695312 157.855469 C 115.589844 158.96875 115.554688 159.710938 115.546875 159.917969 C 115.292969 160.554688 115.03125 161.1875 114.742188 161.804688 C 114.019531 163.382812 113.167969 164.871094 112.1875 166.265625 C 112.011719 166.347656 111.824219 166.433594 111.617188 166.53125 C 112.292969 165.460938 112.984375 164.222656 113.609375 162.847656 Z M 112.832031 161.035156 C 113.109375 160.472656 113.359375 159.914062 113.578125 159.367188 C 113.644531 159.304688 113.710938 159.242188 113.773438 159.183594 C 114.050781 158.917969 114.292969 158.679688 114.5 158.46875 C 114.414062 158.683594 114.332031 158.90625 114.242188 159.128906 C 113.886719 160.019531 113.484375 160.972656 113.050781 161.953125 C 112.992188 161.992188 112.933594 162.039062 112.859375 162.089844 C 112.609375 162.28125 112.25 162.53125 111.820312 162.828125 C 112.167969 162.269531 112.511719 161.671875 112.832031 161.035156 Z M 112.40625 159.597656 C 112.289062 159.675781 112.167969 159.757812 112.046875 159.839844 C 112.109375 159.632812 112.175781 159.410156 112.238281 159.179688 C 112.339844 159.113281 112.441406 159.046875 112.539062 158.980469 C 112.484375 159.21875 112.4375 159.425781 112.40625 159.597656 Z M 114.957031 153.453125 C 114.921875 153.574219 114.878906 153.710938 114.828125 153.863281 C 114.867188 153.726562 114.90625 153.59375 114.945312 153.460938 C 114.949219 153.457031 114.953125 153.457031 114.957031 153.453125 Z M 114.664062 158.039062 C 114.445312 158.1875 114.183594 158.371094 113.878906 158.582031 C 113.960938 158.359375 114.039062 158.140625 114.109375 157.925781 C 114.121094 157.890625 114.132812 157.855469 114.144531 157.820312 C 114.445312 157.585938 114.730469 157.355469 115 157.128906 C 114.894531 157.421875 114.78125 157.722656 114.664062 158.039062 Z M 115.964844 154.269531 C 115.894531 154.503906 115.800781 154.792969 115.6875 155.125 C 115.585938 155.4375 115.472656 155.792969 115.335938 156.175781 C 115.0625 156.359375 114.769531 156.550781 114.457031 156.757812 C 114.605469 156.222656 114.726562 155.714844 114.816406 155.261719 C 114.898438 154.878906 114.949219 154.527344 115 154.21875 C 115.050781 153.914062 115.082031 153.644531 115.105469 153.425781 C 115.109375 153.390625 115.113281 153.359375 115.117188 153.324219 C 115.65625 152.894531 116.15625 152.46875 116.617188 152.066406 C 116.570312 152.277344 116.523438 152.488281 116.476562 152.707031 C 116.25 153.796875 116.078125 154.828125 115.949219 155.757812 C 115.914062 155.78125 115.878906 155.808594 115.84375 155.832031 C 115.964844 155.203125 116.050781 154.675781 116.101562 154.289062 C 116.164062 153.800781 116.199219 153.53125 116.199219 153.53125 C 116.199219 153.53125 116.113281 153.792969 115.964844 154.269531 Z M 116.730469 155.550781 C 116.902344 155.382812 117.046875 155.234375 117.167969 155.105469 C 116.714844 156.683594 116.207031 158.230469 115.617188 159.738281 C 115.714844 159.414062 115.898438 158.773438 116.132812 157.898438 C 116.3125 157.234375 116.519531 156.4375 116.730469 155.550781 Z M 108.511719 168.867188 C 109.046875 168.59375 109.542969 168.3125 110 168.035156 C 109.917969 168.179688 109.835938 168.332031 109.757812 168.46875 C 109.5625 168.800781 109.390625 169.101562 109.230469 169.375 C 109.023438 169.449219 108.800781 169.527344 108.554688 169.613281 C 108.269531 169.714844 107.960938 169.816406 107.628906 169.921875 C 107.945312 169.5625 108.238281 169.207031 108.511719 168.867188 Z M 109.828125 169.15625 C 109.804688 169.164062 109.777344 169.175781 109.75 169.183594 C 109.875 169.023438 110.007812 168.855469 110.144531 168.671875 C 110.4375 168.285156 110.753906 167.839844 111.082031 167.355469 C 111.257812 167.238281 111.429688 167.125 111.589844 167.019531 C 111.625 166.996094 111.660156 166.972656 111.695312 166.949219 C 111.117188 167.714844 110.496094 168.453125 109.828125 169.15625 Z M 119.679688 139.496094 C 119.472656 139.660156 119.257812 139.828125 119.03125 140.007812 C 118.972656 139.605469 118.910156 139.226562 118.839844 138.882812 C 119.109375 138.699219 119.367188 138.515625 119.609375 138.328125 C 119.617188 138.40625 119.628906 138.589844 119.644531 138.859375 C 119.65625 139.035156 119.667969 139.25 119.679688 139.496094 Z M 120.167969 134.9375 C 120.652344 134.792969 121.105469 134.636719 121.523438 134.480469 C 121.441406 134.746094 121.371094 134.992188 121.304688 135.234375 C 120.855469 135.445312 120.351562 135.675781 119.816406 135.914062 C 119.921875 135.609375 120.039062 135.28125 120.167969 134.9375 Z M 122.023438 132.960938 C 121.941406 133.195312 121.863281 133.425781 121.789062 133.652344 C 121.402344 133.730469 120.984375 133.824219 120.542969 133.933594 C 120.648438 133.667969 120.75 133.394531 120.863281 133.113281 C 121.273438 133.074219 121.664062 133.019531 122.023438 132.960938 Z M 121.347656 131.878906 C 121.394531 131.769531 121.4375 131.664062 121.480469 131.558594 C 121.871094 131.546875 122.234375 131.527344 122.578125 131.5 C 122.480469 131.746094 122.382812 131.988281 122.292969 132.230469 C 121.953125 132.230469 121.585938 132.238281 121.203125 132.246094 C 121.25 132.125 121.300781 132.003906 121.347656 131.878906 Z M 122.050781 130.175781 C 122.433594 130.199219 122.796875 130.207031 123.136719 130.210938 C 123.085938 130.324219 123.035156 130.433594 122.984375 130.546875 C 122.933594 130.65625 122.886719 130.769531 122.839844 130.878906 C 122.515625 130.851562 122.164062 130.820312 121.792969 130.789062 C 121.878906 130.578125 121.964844 130.375 122.050781 130.175781 Z M 122.695312 128.664062 C 123.089844 128.726562 123.460938 128.773438 123.8125 128.8125 C 123.8125 128.820312 123.808594 128.824219 123.808594 128.832031 C 123.679688 129.082031 123.550781 129.339844 123.421875 129.605469 C 123.09375 129.550781 122.738281 129.492188 122.363281 129.433594 C 122.480469 129.164062 122.589844 128.910156 122.695312 128.664062 Z M 121.691406 121.566406 C 121.523438 121.472656 121.371094 121.390625 121.230469 121.3125 C 121.304688 121.140625 121.386719 120.9375 121.46875 120.703125 C 122.058594 121.046875 122.796875 121.4375 123.640625 121.8125 C 123.601562 122.035156 123.558594 122.265625 123.511719 122.496094 C 123.429688 122.457031 123.34375 122.417969 123.261719 122.378906 C 122.671875 122.085938 122.136719 121.8125 121.691406 121.566406 Z M 123.917969 120.296875 C 123.875 120.527344 123.835938 120.765625 123.789062 121.011719 C 122.96875 120.730469 122.226562 120.480469 121.613281 120.269531 C 121.703125 119.980469 121.785156 119.664062 121.851562 119.324219 C 122.421875 119.609375 123.125 119.949219 123.917969 120.296875 Z M 121.933594 118.851562 C 122.046875 118.066406 122.035156 117.335938 121.992188 116.761719 L 122.449219 117.199219 C 123.007812 117.703125 123.59375 118.175781 124.199219 118.617188 C 124.175781 118.757812 124.152344 118.90625 124.125 119.0625 C 124.105469 119.199219 124.082031 119.347656 124.054688 119.496094 C 123.257812 119.230469 122.527344 119.03125 121.929688 118.882812 C 121.929688 118.871094 121.933594 118.863281 121.933594 118.851562 Z M 123.699219 111.484375 C 123.488281 112.007812 123.308594 112.492188 123.171875 112.910156 C 123.046875 113.289062 122.949219 113.605469 122.878906 113.851562 L 122.730469 113.691406 C 122.566406 113.496094 122.40625 113.296875 122.242188 113.09375 C 122.308594 113.0625 122.371094 113.023438 122.429688 112.964844 C 122.890625 112.496094 123.3125 112 123.699219 111.484375 Z M 142.429688 74.328125 C 143.324219 72.171875 144.1875 70.007812 145.058594 67.816406 C 146.792969 63.433594 148.542969 58.992188 150.210938 54.460938 C 151.042969 52.195312 151.851562 49.90625 152.605469 47.597656 C 153.363281 45.292969 154.050781 42.949219 154.695312 40.632812 C 155.992188 36 157.160156 31.421875 158.777344 27.125 C 160.382812 22.839844 162.4375 18.808594 165.261719 15.527344 C 167.183594 13.269531 169.453125 11.390625 171.898438 9.914062 C 170.46875 11.070312 169.195312 12.371094 168.023438 13.722656 C 166.46875 15.53125 165.046875 17.398438 163.722656 19.355469 C 162.398438 21.308594 161.21875 23.363281 160.207031 25.480469 C 158.171875 29.71875 156.765625 34.15625 155.449219 38.5625 C 154.15625 42.976562 152.820312 47.347656 151.351562 51.695312 C 149.894531 56.039062 148.300781 60.335938 146.613281 64.609375 C 144.921875 68.878906 143.132812 73.121094 141.210938 77.320312 C 140.914062 77.96875 140.609375 78.613281 140.308594 79.261719 C 141.027344 77.636719 141.738281 75.996094 142.429688 74.328125 Z M 194.054688 10.886719 C 194.03125 11.148438 193.996094 11.417969 193.957031 11.6875 C 193.914062 11.632812 193.871094 11.582031 193.828125 11.527344 C 193.578125 11.230469 193.355469 10.917969 193.074219 10.648438 L 192.257812 9.816406 L 191.882812 9.496094 C 191.941406 9.183594 191.992188 8.867188 192.035156 8.523438 C 192.050781 8.390625 192.066406 8.25 192.078125 8.109375 C 192.8125 8.824219 193.445312 9.6875 194.03125 10.601562 C 194.046875 10.621094 194.058594 10.644531 194.070312 10.664062 C 194.066406 10.738281 194.0625 10.8125 194.054688 10.886719 Z M 135.25 109.589844 C 134.457031 110.496094 133.441406 111.832031 132.5625 113.472656 C 132.234375 114.078125 131.953125 114.683594 131.710938 115.261719 C 131.578125 115.195312 131.449219 115.128906 131.335938 115.070312 C 131.316406 115.058594 131.296875 115.050781 131.277344 115.039062 C 131.613281 114.425781 131.964844 113.773438 132.320312 113.097656 C 133.242188 111.335938 134.027344 109.734375 134.578125 108.574219 C 134.953125 108.746094 135.328125 108.917969 135.699219 109.085938 C 135.558594 109.238281 135.410156 109.402344 135.25 109.589844 Z M 136.328125 110.328125 C 135.648438 111.25 134.757812 112.570312 133.949219 114.136719 C 133.628906 114.757812 133.347656 115.367188 133.101562 115.949219 C 132.863281 115.835938 132.636719 115.722656 132.421875 115.617188 C 132.710938 115.054688 133.027344 114.457031 133.355469 113.84375 C 134.214844 112.242188 135.023438 110.832031 135.621094 109.820312 C 135.753906 109.597656 135.875 109.398438 135.984375 109.214844 C 136.28125 109.347656 136.582031 109.484375 136.878906 109.613281 C 136.71875 109.816406 136.535156 110.054688 136.328125 110.328125 Z M 137.199219 110.558594 C 136.742188 111.125 136.195312 111.859375 135.652344 112.722656 C 136.066406 111.886719 136.429688 111.136719 136.722656 110.527344 C 136.871094 110.214844 136.996094 109.945312 137.105469 109.714844 L 137.652344 109.957031 L 137.6875 109.972656 C 137.542969 110.140625 137.378906 110.335938 137.199219 110.558594 Z M 137.941406 110.082031 C 137.957031 110.089844 137.972656 110.097656 137.980469 110.097656 L 138.199219 110.179688 C 138.269531 110.203125 138.347656 110.234375 138.421875 110.261719 C 138.351562 110.347656 138.277344 110.433594 138.203125 110.53125 C 137.640625 111.226562 136.953125 112.15625 136.277344 113.253906 C 136.78125 112.296875 137.230469 111.441406 137.582031 110.769531 C 137.714844 110.511719 137.835938 110.285156 137.941406 110.082031 Z M 134.511719 116.617188 C 134.570312 116.503906 134.632812 116.390625 134.691406 116.273438 C 134.640625 116.394531 134.589844 116.511719 134.539062 116.628906 C 134.53125 116.625 134.519531 116.621094 134.511719 116.617188 Z M 134.050781 117.855469 C 134 117.835938 133.945312 117.820312 133.886719 117.804688 C 133.96875 117.648438 134.054688 117.488281 134.140625 117.320312 C 134.175781 117.332031 134.210938 117.339844 134.242188 117.347656 C 134.175781 117.523438 134.113281 117.691406 134.050781 117.855469 Z M 134.65625 118.042969 C 134.75 117.871094 134.847656 117.6875 134.945312 117.503906 C 135.191406 117.546875 135.421875 117.574219 135.628906 117.585938 C 135.640625 117.589844 135.652344 117.589844 135.664062 117.589844 C 135.527344 117.804688 135.386719 118.015625 135.242188 118.226562 C 135.066406 118.171875 134.871094 118.113281 134.65625 118.042969 Z M 133.414062 119.808594 C 133.238281 119.777344 133.0625 119.742188 132.890625 119.707031 C 133.03125 119.433594 133.246094 119.027344 133.507812 118.523438 C 133.609375 118.539062 133.703125 118.554688 133.800781 118.566406 C 133.746094 118.726562 133.695312 118.878906 133.648438 119.023438 C 133.558594 119.3125 133.480469 119.574219 133.414062 119.808594 Z M 133.804688 116.289062 C 133.84375 116.21875 133.882812 116.148438 133.921875 116.074219 C 133.890625 116.148438 133.859375 116.226562 133.828125 116.296875 C 133.820312 116.296875 133.8125 116.292969 133.804688 116.289062 Z M 133.394531 117.054688 C 133.4375 117.070312 133.480469 117.089844 133.523438 117.109375 C 133.457031 117.289062 133.398438 117.464844 133.34375 117.632812 C 133.265625 117.609375 133.191406 117.585938 133.117188 117.5625 C 133.207031 117.398438 133.300781 117.226562 133.394531 117.054688 Z M 131.667969 117.109375 C 131.792969 116.851562 131.929688 116.582031 132.074219 116.300781 C 132.285156 116.457031 132.519531 116.609375 132.773438 116.75 C 132.6875 116.964844 132.605469 117.179688 132.53125 117.378906 C 132.230469 117.285156 131.941406 117.195312 131.667969 117.109375 Z M 130.148438 117.074219 C 130.164062 117.085938 130.179688 117.097656 130.195312 117.113281 C 130.394531 117.257812 130.628906 117.417969 130.890625 117.570312 C 130.859375 117.683594 130.824219 117.796875 130.796875 117.902344 C 130.675781 118.339844 130.585938 118.71875 130.519531 119.023438 C 130.109375 118.875 129.707031 118.710938 129.308594 118.53125 C 129.539062 118.140625 129.820312 117.648438 130.148438 117.074219 Z M 128.011719 121.175781 C 128.003906 121.136719 128 121.09375 127.992188 121.054688 C 127.980469 120.96875 127.964844 120.890625 127.953125 120.808594 C 128.539062 121.074219 129.132812 121.320312 129.742188 121.535156 L 129.90625 121.585938 C 129.871094 121.679688 129.800781 121.875 129.714844 122.144531 C 129.304688 121.890625 128.722656 121.546875 128.011719 121.175781 Z M 129.285156 123 C 128.941406 122.875 128.550781 122.726562 128.128906 122.570312 C 128.121094 122.335938 128.109375 122.113281 128.089844 121.898438 C 128.71875 122.105469 129.246094 122.261719 129.640625 122.375 C 129.574219 122.574219 129.507812 122.804688 129.433594 123.058594 C 129.382812 123.039062 129.335938 123.023438 129.285156 123 Z M 129.074219 124.492188 C 129.054688 124.578125 129.039062 124.660156 129.023438 124.742188 C 128.945312 124.71875 128.867188 124.691406 128.785156 124.664062 C 128.558594 124.585938 128.308594 124.5 128.046875 124.40625 C 128.09375 124.003906 128.121094 123.613281 128.128906 123.242188 C 128.519531 123.320312 128.882812 123.386719 129.207031 123.433594 C 129.25 123.441406 129.285156 123.445312 129.324219 123.449219 C 129.238281 123.777344 129.152344 124.125 129.074219 124.492188 Z M 130.078125 123.546875 C 130.183594 123.558594 130.28125 123.566406 130.371094 123.574219 L 130.015625 124.164062 C 130.042969 123.953125 130.066406 123.746094 130.078125 123.546875 Z M 127.699219 126.207031 C 128.082031 126.226562 128.402344 126.238281 128.632812 126.234375 C 128.683594 126.234375 128.726562 126.230469 128.769531 126.230469 L 128.058594 127.40625 C 127.855469 127.371094 127.617188 127.324219 127.351562 127.273438 C 127.476562 126.9375 127.59375 126.582031 127.699219 126.207031 Z M 125.066406 128.472656 C 125.003906 128.457031 124.941406 128.4375 124.878906 128.417969 C 125.007812 128.128906 125.128906 127.847656 125.25 127.578125 C 125.683594 127.617188 126.085938 127.640625 126.457031 127.652344 C 126.34375 128.0625 126.226562 128.441406 126.117188 128.78125 C 125.859375 128.703125 125.503906 128.597656 125.066406 128.472656 Z M 124.671875 128.886719 C 124.792969 128.894531 124.914062 128.902344 125.027344 128.910156 C 125.453125 128.929688 125.804688 128.9375 126.066406 128.941406 C 126.054688 128.972656 126.042969 129.007812 126.035156 129.039062 C 125.898438 129.445312 125.78125 129.78125 125.683594 130.039062 C 125.421875 129.980469 124.9375 129.882812 124.285156 129.761719 C 124.417969 129.464844 124.546875 129.167969 124.671875 128.886719 Z M 123.230469 127.464844 C 123.257812 127.402344 123.28125 127.347656 123.308594 127.289062 C 123.539062 127.335938 123.765625 127.378906 123.984375 127.414062 C 123.953125 127.671875 123.921875 127.917969 123.890625 128.148438 C 123.617188 128.074219 123.328125 128 123.023438 127.921875 C 123.097656 127.761719 123.164062 127.609375 123.230469 127.464844 Z M 124.222656 125.6875 C 124.179688 125.996094 124.136719 126.296875 124.097656 126.585938 C 123.957031 126.550781 123.820312 126.519531 123.675781 126.488281 C 123.914062 125.96875 124.050781 125.671875 124.050781 125.671875 C 124.050781 125.671875 123.929688 125.820312 123.707031 126.089844 C 123.632812 126.1875 123.539062 126.304688 123.441406 126.433594 C 123.414062 126.425781 123.382812 126.417969 123.355469 126.410156 C 123.460938 126.136719 123.566406 125.847656 123.667969 125.539062 C 123.851562 125.59375 124.039062 125.640625 124.222656 125.6875 Z M 124.496094 123.90625 C 124.449219 124.195312 124.402344 124.488281 124.355469 124.785156 C 124.351562 124.804688 124.351562 124.820312 124.347656 124.835938 C 124.207031 124.792969 124.0625 124.75 123.917969 124.707031 C 124.003906 124.394531 124.082031 124.074219 124.15625 123.738281 C 124.269531 123.796875 124.378906 123.851562 124.496094 123.90625 Z M 124.765625 122.273438 C 124.726562 122.511719 124.679688 122.761719 124.640625 123.019531 C 124.53125 122.972656 124.425781 122.921875 124.324219 122.875 C 124.363281 122.628906 124.402344 122.382812 124.429688 122.144531 C 124.542969 122.1875 124.652344 122.230469 124.765625 122.273438 Z M 125.03125 120.773438 C 125.015625 120.851562 125 120.929688 124.984375 121.015625 C 124.964844 121.140625 124.941406 121.269531 124.917969 121.40625 C 124.78125 121.359375 124.652344 121.3125 124.519531 121.265625 C 124.535156 121.03125 124.550781 120.800781 124.558594 120.578125 C 124.714844 120.640625 124.871094 120.707031 125.03125 120.773438 Z M 125.449219 121.59375 C 125.445312 121.59375 125.441406 121.59375 125.441406 121.589844 C 125.4375 121.398438 125.429688 121.210938 125.421875 121.039062 C 125.421875 121 125.417969 120.96875 125.417969 120.929688 C 126.167969 121.230469 126.878906 121.488281 127.515625 121.707031 C 127.5 121.90625 127.484375 122.109375 127.460938 122.324219 C 126.839844 122.09375 126.164062 121.847656 125.449219 121.59375 Z M 125.394531 123.351562 C 125.414062 123.0625 125.425781 122.78125 125.433594 122.515625 C 126.113281 122.746094 126.773438 122.933594 127.378906 123.078125 C 127.335938 123.410156 127.289062 123.75 127.234375 124.101562 C 126.660156 123.882812 126.039062 123.628906 125.394531 123.351562 Z M 127.050781 125.152344 C 127.019531 125.308594 126.988281 125.460938 126.957031 125.609375 C 126.71875 125.542969 126.46875 125.46875 126.207031 125.390625 C 126.328125 125.105469 126.4375 124.859375 126.519531 124.667969 C 126.722656 124.722656 126.917969 124.773438 127.109375 124.820312 C 127.089844 124.929688 127.070312 125.039062 127.050781 125.152344 Z M 125.90625 126.089844 C 125.914062 126.066406 125.921875 126.046875 125.933594 126.027344 C 126.253906 126.074219 126.558594 126.113281 126.839844 126.140625 C 126.761719 126.484375 126.683594 126.8125 126.601562 127.128906 C 126.273438 127.0625 125.917969 126.988281 125.542969 126.90625 C 125.671875 126.617188 125.792969 126.339844 125.90625 126.089844 Z M 125.226562 124.882812 C 125.257812 124.671875 125.285156 124.464844 125.308594 124.257812 C 125.675781 124.402344 126.035156 124.523438 126.382812 124.625 C 126.253906 124.804688 126.089844 125.035156 125.910156 125.300781 C 125.675781 125.234375 125.441406 125.164062 125.191406 125.089844 C 125.203125 125.019531 125.21875 124.953125 125.226562 124.882812 Z M 124.839844 126.753906 C 124.914062 126.472656 124.984375 126.179688 125.046875 125.871094 C 125.195312 125.902344 125.335938 125.925781 125.476562 125.953125 C 125.3125 126.207031 125.140625 126.484375 124.957031 126.78125 C 124.921875 126.773438 124.882812 126.761719 124.839844 126.753906 Z M 128.792969 126.140625 C 128.746094 126.128906 128.699219 126.113281 128.640625 126.097656 C 128.425781 126.035156 128.140625 125.953125 127.792969 125.851562 C 127.839844 125.664062 127.878906 125.472656 127.917969 125.277344 C 127.9375 125.183594 127.949219 125.085938 127.964844 124.992188 C 128.234375 125.039062 128.492188 125.070312 128.722656 125.097656 C 128.804688 125.105469 128.875 125.109375 128.949219 125.117188 C 128.886719 125.488281 128.835938 125.835938 128.792969 126.140625 Z M 124.390625 114.214844 C 124.96875 113.222656 125.769531 111.859375 126.636719 110.378906 C 127.496094 108.886719 128.261719 107.554688 128.8125 106.597656 C 128.957031 106.339844 129.085938 106.113281 129.195312 105.914062 L 129.816406 106.230469 C 130.035156 106.34375 130.253906 106.453125 130.472656 106.566406 C 130.449219 106.589844 130.425781 106.609375 130.398438 106.636719 C 130.148438 106.863281 129.800781 107.207031 129.390625 107.652344 C 128.578125 108.542969 127.539062 109.882812 126.679688 111.550781 C 125.84375 113.167969 125.347656 114.761719 125.085938 115.953125 C 124.796875 115.722656 124.515625 115.488281 124.242188 115.242188 L 123.945312 114.960938 C 124.074219 114.742188 124.222656 114.496094 124.390625 114.214844 Z M 178.175781 8.773438 C 179.316406 8.394531 180.507812 8.175781 181.710938 8.121094 L 181.28125 8.59375 C 175.066406 15.476562 169.992188 23.09375 165.601562 30.941406 C 161.207031 38.796875 157.492188 46.910156 153.960938 55.074219 C 150.421875 63.242188 147.011719 71.457031 143.285156 79.601562 C 139.550781 87.738281 135.511719 95.828125 130.671875 103.578125 C 130.605469 103.683594 130.542969 103.785156 130.484375 103.882812 C 129.914062 103.558594 129.339844 103.234375 128.765625 102.910156 C 130.863281 99.992188 132.914062 96.832031 134.9375 93.484375 C 137.0625 89.945312 139.121094 86.183594 141.109375 82.265625 C 145.066406 74.410156 148.710938 65.902344 151.839844 57.128906 C 153.410156 52.746094 154.867188 48.296875 156.1875 43.84375 C 157.507812 39.390625 158.691406 34.988281 160.25 30.839844 C 161.023438 28.761719 161.894531 26.753906 162.890625 24.839844 C 163.882812 22.925781 165.027344 21.109375 166.253906 19.378906 C 168.738281 15.933594 171.398438 12.675781 174.609375 10.535156 C 175.730469 9.800781 176.917969 9.179688 178.175781 8.773438 Z M 187.730469 6.035156 C 188.402344 6.136719 189.054688 6.292969 189.667969 6.53125 C 189.710938 6.546875 189.753906 6.570312 189.796875 6.585938 C 189.804688 6.625 189.8125 6.660156 189.820312 6.699219 C 189.832031 6.796875 189.839844 6.894531 189.847656 6.996094 L 189.429688 7.507812 C 189.382812 7.566406 189.339844 7.625 189.296875 7.679688 C 188.992188 7.519531 188.695312 7.347656 188.382812 7.210938 L 187.292969 6.765625 C 186.984375 6.652344 186.671875 6.554688 186.355469 6.464844 C 186.53125 6.289062 186.707031 6.113281 186.875 5.949219 C 187.164062 5.96875 187.449219 5.996094 187.730469 6.035156 Z M 157.472656 79.667969 C 153.988281 83.941406 150.308594 88.046875 146.429688 91.945312 C 145.445312 92.910156 144.488281 93.890625 143.488281 94.84375 C 142.496094 95.800781 141.507812 96.765625 140.53125 97.746094 C 138.589844 99.710938 136.703125 101.738281 135.019531 103.933594 C 134.496094 104.613281 134.121094 105.242188 133.871094 105.769531 C 133.769531 105.710938 133.667969 105.652344 133.5625 105.597656 C 133.910156 105 134.257812 104.402344 134.609375 103.792969 C 146.398438 88.460938 157.542969 71.984375 168.660156 55.699219 C 171.367188 51.726562 174.113281 47.753906 176.757812 43.683594 C 179.402344 39.617188 181.957031 35.457031 184.210938 31.113281 L 185.054688 29.480469 C 185.328125 28.933594 185.585938 28.375 185.851562 27.824219 C 186.394531 26.726562 186.875 25.597656 187.371094 24.472656 C 187.625 23.914062 187.84375 23.339844 188.070312 22.765625 L 188.742188 21.050781 L 189.351562 19.308594 C 189.550781 18.726562 189.765625 18.148438 189.929688 17.554688 C 190.277344 16.371094 190.652344 15.199219 190.925781 13.996094 C 191.070312 13.394531 191.222656 12.796875 191.359375 12.195312 L 191.371094 12.144531 C 191.703125 12.503906 192.027344 12.875 192.320312 13.269531 C 192.691406 13.777344 193.042969 14.308594 193.367188 14.859375 C 193.363281 14.859375 193.363281 14.863281 193.363281 14.867188 C 192.761719 17.519531 191.921875 20.121094 190.929688 22.679688 C 188.941406 27.785156 186.449219 32.75 183.992188 37.703125 C 181.503906 42.644531 178.898438 47.53125 176.125 52.320312 C 170.574219 61.882812 164.4375 71.113281 157.472656 79.667969 Z M 135.21875 100.152344 C 134.539062 101.167969 133.859375 102.183594 133.183594 103.195312 C 132.773438 103.808594 132.449219 104.371094 132.214844 104.851562 C 131.972656 104.71875 131.730469 104.589844 131.488281 104.453125 C 131.402344 104.40625 131.316406 104.355469 131.230469 104.304688 C 134.015625 100.617188 136.671875 96.464844 139.203125 92 C 137.859375 94.695312 136.535156 97.414062 135.21875 100.152344 Z M 144.882812 85.292969 C 146.945312 81.59375 149.128906 77.890625 151.472656 74.175781 C 153.804688 70.457031 156.265625 66.726562 158.75 62.96875 C 163.714844 55.460938 168.753906 47.792969 172.957031 39.949219 C 175.058594 36.042969 177.011719 32.160156 178.960938 28.425781 C 180.910156 24.691406 182.867188 21.101562 184.925781 17.769531 C 186.261719 15.617188 187.671875 13.511719 189.167969 11.46875 L 189.101562 11.796875 L 188.660156 13.546875 C 188.390625 14.71875 188 15.859375 187.660156 17.015625 C 186.1875 21.605469 184.171875 26.023438 181.902344 30.304688 C 177.320312 38.867188 171.625 46.820312 166.085938 54.871094 C 158.429688 65.957031 150.808594 77.050781 143.292969 88.15625 C 143.816406 87.207031 144.347656 86.25 144.882812 85.292969 Z M 183.355469 9.546875 C 183.738281 9.125 184.128906 8.710938 184.527344 8.304688 C 185.019531 8.390625 185.507812 8.511719 185.980469 8.65625 C 186.644531 8.890625 187.300781 9.152344 187.929688 9.472656 C 187.582031 9.9375 187.238281 10.402344 186.90625 10.882812 C 184.195312 14.683594 181.863281 18.667969 179.664062 22.667969 C 177.46875 26.671875 175.425781 30.707031 173.335938 34.691406 C 171.25 38.671875 169.09375 42.585938 166.757812 46.398438 C 164.433594 50.214844 161.996094 53.960938 159.535156 57.695312 C 154.617188 65.160156 149.59375 72.589844 145.214844 80.488281 C 145.085938 80.71875 144.960938 80.953125 144.835938 81.183594 C 148.058594 74.511719 151.097656 67.460938 154.125 60.382812 C 157.644531 52.144531 161.207031 43.890625 165.21875 36.164062 C 167.214844 32.300781 169.316406 28.570312 171.53125 25.042969 C 173.746094 21.515625 176.089844 18.207031 178.519531 15.164062 L 179.675781 13.71875 L 180.882812 12.3125 C 181.289062 11.847656 181.679688 11.367188 182.097656 10.914062 Z M 131.097656 115.4375 C 131.210938 115.558594 131.339844 115.691406 131.484375 115.820312 C 131.335938 116.210938 131.203125 116.582031 131.089844 116.933594 C 130.824219 116.851562 130.582031 116.773438 130.367188 116.707031 C 130.363281 116.707031 130.359375 116.707031 130.355469 116.703125 C 130.582031 116.304688 130.820312 115.871094 131.074219 115.410156 C 131.082031 115.421875 131.085938 115.429688 131.097656 115.4375 Z M 130.539062 114.753906 C 130.253906 115.382812 130 115.984375 129.785156 116.527344 C 129.53125 116.449219 129.382812 116.410156 129.382812 116.410156 C 129.382812 116.410156 129.496094 116.53125 129.710938 116.71875 C 129.609375 116.980469 129.511719 117.226562 129.425781 117.460938 C 129.292969 117.828125 129.179688 118.148438 129.082031 118.429688 C 128.457031 118.140625 127.84375 117.824219 127.25 117.46875 C 126.628906 117.09375 126.03125 116.683594 125.453125 116.242188 C 125.464844 116.222656 125.472656 116.203125 125.480469 116.179688 C 125.949219 115.046875 126.640625 113.523438 127.476562 111.910156 C 128.3125 110.292969 129.136719 108.890625 129.761719 107.890625 C 130.074219 107.390625 130.328125 106.988281 130.511719 106.714844 C 130.535156 106.679688 130.550781 106.648438 130.574219 106.617188 C 131.75 107.214844 132.933594 107.804688 134.128906 108.367188 C 134.144531 108.375 134.160156 108.382812 134.179688 108.390625 C 133.425781 109.457031 132.445312 110.96875 131.519531 112.734375 C 131.171875 113.398438 130.855469 114.050781 130.574219 114.675781 C 130.488281 114.628906 130.441406 114.605469 130.441406 114.605469 C 130.441406 114.605469 130.472656 114.660156 130.539062 114.753906 Z M 125.417969 109.886719 C 126.769531 107.375 127.632812 105.28125 127.632812 105.28125 C 127.632812 105.28125 127.226562 105.703125 126.644531 106.441406 C 126.582031 106.519531 126.523438 106.597656 126.457031 106.679688 C 126.773438 106.003906 127.292969 104.886719 127.136719 105.109375 C 127.136719 105.0625 127.140625 105.007812 127.15625 104.945312 C 127.183594 104.941406 127.222656 104.941406 127.269531 104.949219 L 127.347656 104.964844 L 127.367188 104.972656 L 127.378906 104.972656 C 127.386719 104.976562 127.378906 104.972656 127.410156 104.988281 L 127.679688 105.125 L 128.953125 105.789062 C 128.800781 105.957031 128.625 106.152344 128.4375 106.371094 C 127.695312 107.226562 126.734375 108.46875 125.859375 109.976562 C 124.984375 111.480469 124.371094 112.953125 123.988281 114.039062 C 123.890625 114.308594 123.808594 114.546875 123.742188 114.765625 L 123.5625 114.59375 L 123.003906 113.988281 C 123.464844 113.273438 124.433594 111.714844 125.417969 109.886719 Z M 124.554688 118.867188 C 124.988281 119.171875 125.429688 119.460938 125.882812 119.734375 C 126.433594 120.058594 127 120.359375 127.578125 120.632812 C 127.574219 120.734375 127.570312 120.839844 127.5625 120.945312 C 126.976562 120.652344 126.320312 120.351562 125.613281 120.066406 C 125.523438 120.03125 125.433594 119.996094 125.347656 119.960938 C 125.3125 119.625 125.28125 119.429688 125.28125 119.429688 C 125.28125 119.429688 125.246094 119.601562 125.191406 119.902344 C 124.984375 119.824219 124.777344 119.746094 124.578125 119.675781 C 124.574219 119.464844 124.570312 119.265625 124.5625 119.082031 C 124.5625 119.003906 124.558594 118.9375 124.554688 118.867188 Z M 131.519531 119.359375 L 130.714844 119.097656 C 130.851562 118.8125 131.015625 118.457031 131.214844 118.042969 C 131.25 117.96875 131.289062 117.886719 131.328125 117.808594 C 131.609375 117.949219 131.914062 118.085938 132.246094 118.199219 C 132.234375 118.242188 132.21875 118.28125 132.203125 118.320312 C 132.058594 118.773438 131.941406 119.15625 131.859375 119.453125 C 131.722656 119.417969 131.605469 119.382812 131.519531 119.359375 Z M 133.699219 119.863281 C 133.808594 119.65625 133.925781 119.433594 134.058594 119.179688 C 134.152344 119.003906 134.25 118.816406 134.355469 118.617188 C 134.574219 118.632812 134.78125 118.636719 134.972656 118.628906 C 134.667969 119.066406 134.355469 119.5 134.027344 119.925781 C 133.917969 119.90625 133.808594 119.882812 133.699219 119.863281 Z M 196.015625 24.746094 L 196.027344 25.257812 L 196.003906 25.769531 C 195.984375 26.113281 195.984375 26.453125 195.953125 26.796875 C 195.882812 27.480469 195.824219 28.167969 195.703125 28.851562 C 195.613281 29.535156 195.449219 30.210938 195.3125 30.890625 C 195.136719 31.558594 194.988281 32.234375 194.773438 32.898438 C 193.976562 35.558594 192.835938 38.125 191.519531 40.597656 C 188.863281 45.539062 185.433594 50.078125 181.910156 54.503906 C 178.363281 58.917969 174.582031 63.152344 170.695312 67.285156 C 169.753906 68.28125 168.808594 69.273438 167.855469 70.257812 C 170.3125 66.734375 172.652344 63.140625 174.863281 59.476562 C 180.652344 49.945312 185.78125 40.039062 190.433594 29.914062 C 192.140625 26.152344 193.746094 22.269531 194.886719 18.21875 C 195.601562 20.3125 195.984375 22.523438 196.015625 24.746094 Z M 201.476562 20.054688 C 200.46875 17.078125 198.964844 14.417969 197.460938 11.859375 C 197.105469 11.265625 196.75 10.660156 196.375 10.054688 C 196.375 9.859375 196.375 9.660156 196.367188 9.464844 C 196.355469 9.066406 196.324219 8.660156 196.253906 8.253906 C 196.238281 8.152344 196.222656 8.046875 196.199219 7.945312 C 196.175781 7.855469 196.15625 7.714844 196.113281 7.570312 C 196.03125 7.289062 195.953125 7.007812 195.84375 6.742188 C 195.429688 5.65625 194.765625 4.773438 193.769531 4.492188 C 193.265625 4.351562 192.734375 4.414062 192.289062 4.617188 C 192.066406 4.714844 191.851562 4.84375 191.644531 5 C 191.640625 5 191.636719 4.996094 191.632812 4.996094 C 191.453125 4.632812 191.226562 4.296875 190.949219 3.992188 C 190.796875 3.824219 190.625 3.667969 190.441406 3.523438 C 190.351562 3.457031 190.246094 3.382812 190.132812 3.3125 C 190.023438 3.25 189.914062 3.183594 189.800781 3.132812 C 189.339844 2.914062 188.835938 2.800781 188.328125 2.816406 C 188.039062 2.828125 187.75 2.875 187.472656 2.957031 C 187.40625 2.980469 187.335938 3 187.265625 3.023438 L 187.066406 3.105469 C 186.949219 3.160156 186.832031 3.214844 186.726562 3.277344 C 186.480469 3.414062 186.269531 3.558594 186.078125 3.710938 C 185.375 3.699219 184.6875 3.730469 184.007812 3.792969 L 182.863281 3.90625 L 181.722656 4.074219 C 179.199219 4.46875 176.757812 5.230469 174.4375 6.222656 C 172.132812 7.25 169.949219 8.53125 167.972656 10.066406 C 166.007812 11.609375 164.207031 13.378906 162.703125 15.347656 C 161.1875 17.304688 159.914062 19.421875 158.832031 21.609375 C 156.667969 25.988281 155.238281 30.605469 153.929688 35.191406 C 153.273438 37.488281 152.648438 39.785156 151.980469 42.0625 C 151.316406 44.34375 150.589844 46.597656 149.820312 48.847656 C 148.28125 53.339844 146.570312 57.78125 144.859375 62.230469 C 143.140625 66.671875 141.433594 71.140625 139.640625 75.578125 C 137.832031 80.015625 135.921875 84.433594 133.894531 88.820312 C 131.867188 93.207031 129.722656 97.574219 127.394531 101.871094 C 127.355469 101.941406 127.324219 102.003906 127.289062 102.074219 C 126.894531 101.847656 126.5 101.625 126.109375 101.402344 L 125.246094 103.125 L 124.519531 104.601562 C 124.117188 105.425781 123.722656 106.257812 123.339844 107.089844 C 122.613281 108.671875 121.929688 110.269531 121.3125 111.894531 L 121.089844 111.605469 C 121.066406 111.613281 121.042969 111.59375 121.019531 111.625 L 120.828125 111.980469 L 120.578125 112.453125 L 120.074219 113.390625 L 119.101562 115.195312 L 117.613281 118.003906 C 116.625 119.875 115.636719 121.75 114.648438 123.617188 C 112.683594 127.363281 110.738281 131.109375 108.820312 134.859375 C 107.898438 136.65625 108.007812 137.878906 108.808594 137.289062 C 108.121094 138.113281 107.386719 139.097656 106.703125 140.210938 C 105.585938 142.027344 104.820312 143.824219 104.359375 145.152344 C 104.128906 145.816406 103.960938 146.363281 103.859375 146.746094 C 103.761719 147.128906 103.707031 147.339844 103.707031 147.339844 C 103.707031 147.339844 103.808594 147.144531 103.988281 146.792969 C 104.167969 146.4375 104.4375 145.929688 104.769531 145.3125 C 105.429688 144.074219 106.378906 142.402344 107.476562 140.625 C 108.574219 138.847656 109.613281 137.292969 110.382812 136.183594 C 111.164062 135.082031 111.644531 134.40625 111.644531 134.40625 C 111.644531 134.40625 111.484375 134.546875 111.195312 134.796875 C 110.90625 135.054688 110.503906 135.4375 110.023438 135.933594 C 109.898438 136.0625 109.769531 136.199219 109.636719 136.347656 C 109.679688 136.28125 109.726562 136.210938 109.773438 136.140625 C 112.105469 132.539062 114.34375 128.839844 116.527344 125.082031 C 117.617188 123.203125 118.691406 121.308594 119.757812 119.402344 C 120.285156 118.449219 120.816406 117.496094 121.34375 116.539062 L 121.445312 116.359375 L 121.484375 116.28125 L 121.488281 116.28125 L 121.488281 116.277344 C 121.492188 116.28125 121.480469 116.265625 121.5 116.28125 L 121.589844 116.375 C 121.425781 116.933594 121.210938 117.757812 121.074219 118.683594 C 120.625 118.585938 120.359375 118.542969 120.359375 118.542969 C 120.359375 118.542969 120.609375 118.683594 121.042969 118.910156 C 120.992188 119.3125 120.957031 119.691406 120.941406 120.039062 C 120.703125 119.960938 120.5 119.890625 120.339844 119.835938 C 120.050781 119.742188 119.890625 119.691406 119.890625 119.691406 C 119.890625 119.691406 120.027344 119.789062 120.28125 119.960938 C 120.445312 120.074219 120.664062 120.214844 120.925781 120.375 C 120.914062 120.660156 120.914062 120.917969 120.917969 121.136719 C 120.8125 121.074219 120.714844 121.019531 120.632812 120.96875 C 120.378906 120.824219 120.238281 120.742188 120.238281 120.742188 C 120.238281 120.742188 120.347656 120.863281 120.546875 121.078125 C 120.648438 121.183594 120.773438 121.316406 120.925781 121.457031 C 120.9375 121.730469 120.953125 121.890625 120.953125 121.890625 C 120.953125 121.890625 121.007812 121.789062 121.09375 121.613281 C 121.199219 121.714844 121.316406 121.820312 121.449219 121.929688 C 121.839844 122.277344 122.339844 122.648438 122.914062 123.03125 C 123.058594 123.121094 123.203125 123.214844 123.355469 123.304688 C 123.277344 123.703125 123.199219 124.09375 123.125 124.46875 C 121.804688 124.070312 120.609375 123.707031 119.707031 123.414062 C 119.199219 123.253906 118.789062 123.121094 118.503906 123.03125 C 118.214844 122.941406 118.054688 122.890625 118.054688 122.890625 C 118.054688 122.890625 118.195312 122.988281 118.445312 123.15625 C 118.699219 123.324219 119.070312 123.554688 119.539062 123.820312 C 120.386719 124.304688 121.578125 124.871094 122.949219 125.320312 C 122.882812 125.652344 122.8125 125.96875 122.75 126.265625 C 121.15625 125.875 119.710938 125.480469 118.644531 125.15625 C 117.554688 124.820312 116.871094 124.613281 116.871094 124.613281 C 116.871094 124.613281 117.023438 124.707031 117.296875 124.882812 C 117.570312 125.0625 117.976562 125.296875 118.492188 125.566406 C 119.003906 125.839844 119.628906 126.125 120.335938 126.410156 C 121.011719 126.671875 121.765625 126.917969 122.566406 127.117188 C 122.554688 127.164062 122.542969 127.214844 122.535156 127.257812 C 122.496094 127.445312 122.457031 127.613281 122.421875 127.769531 C 122.085938 127.6875 121.734375 127.605469 121.375 127.523438 C 119.925781 127.199219 118.585938 126.953125 117.601562 126.78125 C 116.613281 126.613281 115.988281 126.527344 115.988281 126.527344 C 115.988281 126.527344 116.550781 126.820312 117.488281 127.207031 C 118.421875 127.59375 119.738281 128.054688 121.222656 128.386719 C 121.496094 128.449219 121.761719 128.5 122.023438 128.550781 C 121.882812 128.792969 121.738281 129.046875 121.59375 129.3125 C 121.210938 129.253906 120.8125 129.199219 120.398438 129.148438 C 118.878906 128.953125 117.476562 128.832031 116.449219 128.753906 C 115.417969 128.675781 114.765625 128.648438 114.765625 128.648438 C 114.765625 128.648438 115.375 128.890625 116.375 129.183594 C 117.375 129.484375 118.777344 129.824219 120.328125 130.019531 C 120.621094 130.058594 120.902344 130.085938 121.183594 130.113281 C 121.085938 130.308594 120.992188 130.511719 120.898438 130.714844 C 120.582031 130.691406 120.261719 130.667969 119.925781 130.648438 C 118.5 130.550781 117.1875 130.496094 116.21875 130.453125 C 115.253906 130.410156 114.636719 130.394531 114.636719 130.394531 C 114.636719 130.394531 115.210938 130.625 116.160156 130.886719 C 117.105469 131.148438 118.433594 131.425781 119.90625 131.523438 C 120.121094 131.535156 120.332031 131.546875 120.539062 131.550781 C 120.53125 131.566406 120.523438 131.582031 120.519531 131.597656 C 120.425781 131.828125 120.339844 132.054688 120.257812 132.28125 C 120.21875 132.285156 120.183594 132.285156 120.144531 132.289062 C 118.90625 132.355469 117.773438 132.472656 116.941406 132.570312 C 116.105469 132.667969 115.574219 132.753906 115.574219 132.753906 C 115.574219 132.753906 116.09375 132.886719 116.933594 133.007812 C 117.71875 133.121094 118.789062 133.214844 119.960938 133.171875 C 119.851562 133.515625 119.75 133.851562 119.664062 134.175781 C 118.488281 134.519531 117.441406 134.929688 116.679688 135.253906 C 115.90625 135.582031 115.429688 135.828125 115.429688 135.828125 C 115.429688 135.828125 115.960938 135.796875 116.800781 135.675781 C 117.503906 135.574219 118.429688 135.40625 119.429688 135.144531 C 119.351562 135.511719 119.285156 135.855469 119.226562 136.171875 C 119.15625 136.203125 119.089844 136.234375 119.015625 136.265625 C 118.746094 136.382812 118.484375 136.496094 118.226562 136.605469 C 118.214844 136.574219 118.210938 136.550781 118.210938 136.550781 C 118.210938 136.550781 118.210938 136.574219 118.214844 136.609375 C 117.3125 136.992188 116.484375 137.328125 115.832031 137.570312 C 114.976562 137.886719 114.4375 138.082031 114.4375 138.082031 C 114.4375 138.082031 114.582031 138.082031 114.84375 138.078125 C 115.101562 138.074219 115.476562 138.050781 115.9375 137.996094 C 116.398438 137.945312 116.941406 137.84375 117.535156 137.695312 C 117.773438 137.632812 118.019531 137.558594 118.273438 137.476562 C 118.285156 137.683594 118.296875 137.921875 118.3125 138.1875 C 118.222656 138.246094 118.136719 138.300781 118.050781 138.359375 C 116.710938 139.230469 115.480469 140.019531 114.5625 140.582031 C 113.640625 141.148438 113.0625 141.507812 113.0625 141.507812 C 113.0625 141.507812 113.226562 141.460938 113.523438 141.378906 C 113.820312 141.296875 114.246094 141.164062 114.761719 140.972656 C 115.109375 140.847656 115.496094 140.691406 115.910156 140.507812 C 115.90625 140.695312 115.902344 140.933594 115.898438 141.210938 C 115.898438 141.601562 115.898438 142.070312 115.902344 142.589844 C 115.09375 143.277344 114.375 143.910156 113.796875 144.417969 C 112.9375 145.175781 112.40625 145.667969 112.40625 145.667969 C 112.40625 145.667969 113.0625 145.355469 114.0625 144.765625 C 114.601562 144.449219 115.238281 144.046875 115.921875 143.570312 C 115.925781 143.703125 115.929688 143.835938 115.933594 143.972656 C 115.960938 144.722656 116.007812 145.417969 116.050781 146.003906 C 115.984375 146.066406 115.921875 146.128906 115.855469 146.191406 C 115.085938 146.917969 114.339844 147.597656 113.65625 148.21875 C 112.960938 148.832031 112.332031 149.386719 111.789062 149.839844 C 110.699219 150.75 110.011719 151.316406 110.011719 151.316406 C 110.011719 151.316406 110.214844 151.214844 110.574219 151.03125 C 110.9375 150.84375 111.445312 150.558594 112.0625 150.183594 C 112.679688 149.8125 113.390625 149.328125 114.152344 148.769531 C 114.796875 148.28125 115.476562 147.722656 116.148438 147.109375 C 116.191406 147.539062 116.222656 147.789062 116.222656 147.789062 C 116.222656 147.789062 116.371094 147.40625 116.523438 146.761719 C 117.15625 146.160156 117.726562 145.554688 118.234375 144.972656 C 118.203125 145.417969 118.167969 145.847656 118.128906 146.253906 C 117.503906 146.933594 116.789062 147.695312 116.015625 148.5 C 116.050781 148.234375 116.070312 148.085938 116.070312 148.085938 C 116.070312 148.085938 115.964844 148.316406 115.796875 148.726562 C 115.492188 149.042969 115.179688 149.363281 114.855469 149.691406 C 113.996094 150.5625 113.167969 151.382812 112.402344 152.128906 C 111.632812 152.867188 110.933594 153.539062 110.328125 154.085938 C 109.117188 155.1875 108.363281 155.875 108.363281 155.875 C 108.363281 155.875 108.582031 155.742188 108.980469 155.5 C 109.378906 155.257812 109.945312 154.890625 110.625 154.414062 C 111.304688 153.941406 112.089844 153.339844 112.929688 152.652344 C 113.59375 152.09375 114.285156 151.472656 114.980469 150.800781 C 114.738281 151.441406 114.476562 152.167969 114.214844 152.949219 C 113.90625 153.175781 113.59375 153.40625 113.273438 153.644531 C 111.417969 155.023438 109.738281 156.300781 108.507812 157.230469 C 107.894531 157.699219 107.394531 158.074219 107.046875 158.339844 C 106.703125 158.605469 106.515625 158.753906 106.515625 158.753906 C 106.515625 158.753906 106.734375 158.644531 107.125 158.453125 C 107.519531 158.257812 108.082031 157.964844 108.765625 157.585938 C 109.789062 157.019531 111.078125 156.246094 112.453125 155.304688 C 112.191406 155.917969 111.886719 156.761719 111.691406 157.722656 C 111.628906 158.023438 111.582031 158.3125 111.546875 158.597656 C 111.328125 158.726562 111.109375 158.859375 110.886719 158.992188 C 110.683594 159.113281 110.484375 159.230469 110.289062 159.347656 C 110.300781 159.316406 110.3125 159.277344 110.324219 159.246094 C 110.523438 158.640625 110.632812 158.304688 110.632812 158.304688 C 110.632812 158.304688 110.476562 158.625 110.191406 159.207031 C 110.148438 159.292969 110.105469 159.386719 110.058594 159.484375 C 109.394531 159.871094 108.753906 160.242188 108.152344 160.582031 C 107.296875 161.054688 106.519531 161.480469 105.855469 161.820312 C 104.515625 162.503906 103.679688 162.929688 103.679688 162.929688 C 103.679688 162.929688 103.910156 162.867188 104.324219 162.757812 C 104.738281 162.644531 105.328125 162.464844 106.046875 162.214844 C 106.769531 161.972656 107.609375 161.632812 108.523438 161.222656 C 108.800781 161.09375 109.085938 160.957031 109.375 160.8125 C 109.242188 161.070312 109.097656 161.347656 108.929688 161.636719 C 108.859375 161.761719 108.785156 161.894531 108.710938 162.027344 C 106.980469 163.132812 105.386719 164.117188 104.191406 164.816406 C 102.949219 165.542969 102.171875 165.996094 102.171875 165.996094 C 102.171875 165.996094 102.386719 165.925781 102.777344 165.800781 C 103.167969 165.671875 103.726562 165.472656 104.402344 165.199219 C 105.082031 164.933594 105.871094 164.574219 106.730469 164.148438 C 107.078125 163.972656 107.441406 163.777344 107.804688 163.574219 C 107.511719 164.066406 107.183594 164.570312 106.84375 165.101562 C 106.632812 165.414062 106.417969 165.734375 106.191406 166.0625 C 105.65625 166.316406 105.132812 166.554688 104.640625 166.769531 C 103.835938 167.105469 103.097656 167.402344 102.464844 167.617188 C 102.152344 167.738281 101.863281 167.824219 101.609375 167.910156 C 101.355469 168 101.132812 168.070312 100.949219 168.125 C 100.585938 168.238281 100.382812 168.304688 100.382812 168.304688 C 100.382812 168.304688 100.597656 168.285156 100.980469 168.257812 C 101.175781 168.246094 101.410156 168.222656 101.679688 168.179688 C 101.949219 168.144531 102.257812 168.105469 102.59375 168.035156 C 103.273438 167.921875 104.066406 167.71875 104.929688 167.449219 C 105.050781 167.410156 105.175781 167.367188 105.300781 167.320312 C 104.871094 167.914062 104.421875 168.511719 103.945312 169.117188 C 103.699219 169.421875 103.457031 169.722656 103.210938 170.015625 C 102.972656 170.085938 102.734375 170.152344 102.507812 170.199219 C 102.308594 170.25 102.121094 170.292969 101.9375 170.335938 C 101.75 170.371094 101.574219 170.402344 101.402344 170.433594 C 101.0625 170.507812 100.75 170.535156 100.472656 170.570312 C 100.335938 170.589844 100.207031 170.605469 100.085938 170.621094 C 99.96875 170.628906 99.859375 170.636719 99.761719 170.640625 C 99.363281 170.667969 99.144531 170.683594 99.144531 170.683594 C 99.144531 170.683594 99.363281 170.71875 99.761719 170.777344 C 99.859375 170.792969 99.972656 170.808594 100.09375 170.824219 C 100.214844 170.832031 100.351562 170.839844 100.492188 170.847656 C 100.777344 170.863281 101.105469 170.886719 101.464844 170.867188 C 101.644531 170.859375 101.832031 170.855469 102.027344 170.847656 C 102.195312 170.832031 102.371094 170.8125 102.550781 170.796875 C 102.390625 170.980469 102.230469 171.164062 102.074219 171.34375 C 101.675781 171.421875 101.285156 171.496094 100.914062 171.5625 C 100.054688 171.699219 99.273438 171.820312 98.613281 171.890625 C 98.28125 171.933594 97.980469 171.957031 97.714844 171.984375 C 97.449219 172.015625 97.21875 172.03125 97.027344 172.046875 C 96.652344 172.078125 96.441406 172.097656 96.441406 172.097656 C 96.441406 172.097656 96.652344 172.125 97.03125 172.183594 C 97.21875 172.210938 97.453125 172.242188 97.722656 172.261719 C 97.996094 172.285156 98.304688 172.316406 98.644531 172.324219 C 99.328125 172.367188 100.140625 172.351562 101.039062 172.292969 C 101.105469 172.289062 101.175781 172.277344 101.242188 172.273438 C 101.050781 172.476562 100.863281 172.683594 100.679688 172.882812 C 100.601562 172.960938 100.523438 173.039062 100.449219 173.117188 C 100.144531 173.140625 99.832031 173.167969 99.511719 173.191406 C 98.074219 173.308594 96.753906 173.410156 95.78125 173.46875 C 95.292969 173.496094 94.894531 173.519531 94.617188 173.539062 C 94.339844 173.558594 94.183594 173.566406 94.183594 173.566406 C 94.183594 173.566406 94.332031 173.605469 94.605469 173.671875 C 94.875 173.742188 95.273438 173.824219 95.765625 173.90625 C 96.722656 174.0625 98.058594 174.175781 99.511719 174.066406 C 99.386719 174.191406 99.257812 174.316406 99.132812 174.433594 C 98.917969 174.640625 98.710938 174.835938 98.511719 175.03125 C 98.132812 175.003906 97.738281 174.976562 97.328125 174.945312 C 96.046875 174.851562 94.871094 174.761719 94 174.671875 C 93.566406 174.632812 93.207031 174.597656 92.960938 174.570312 C 92.710938 174.546875 92.570312 174.535156 92.570312 174.535156 C 92.570312 174.535156 92.699219 174.59375 92.925781 174.703125 C 93.152344 174.808594 93.488281 174.949219 93.90625 175.101562 C 94.75 175.40625 95.953125 175.722656 97.296875 175.820312 C 97.410156 175.828125 97.515625 175.832031 97.625 175.835938 C 97.234375 176.195312 96.859375 176.503906 96.53125 176.785156 C 96.355469 176.9375 96.1875 177.078125 96.035156 177.210938 C 95.875 177.335938 95.734375 177.453125 95.601562 177.554688 C 95.484375 177.652344 95.378906 177.738281 95.285156 177.8125 C 95.109375 177.765625 94.9375 177.707031 94.769531 177.636719 C 93.472656 177.113281 92.363281 176.074219 91.613281 174.832031 C 90.851562 173.59375 90.503906 172.121094 90.433594 170.625 C 90.363281 169.128906 90.570312 167.613281 90.902344 166.125 C 91.066406 165.378906 91.253906 164.636719 91.476562 163.898438 C 91.695312 163.164062 91.902344 162.421875 92.15625 161.695312 C 93.128906 158.777344 94.34375 155.925781 95.792969 153.191406 C 97.253906 150.460938 98.949219 147.84375 100.863281 145.378906 C 102.773438 142.914062 104.914062 140.605469 107.261719 138.507812 C 108.324219 137.570312 108.195312 136.808594 107.242188 137.457031 C 102.980469 140.3125 98.882812 144.464844 95.578125 149.542969 C 93.925781 152.078125 92.464844 154.839844 91.25 157.757812 C 90.957031 158.488281 90.664062 159.226562 90.390625 159.972656 C 90.136719 160.726562 89.855469 161.472656 89.632812 162.238281 C 89.160156 163.757812 88.71875 165.316406 88.4375 166.992188 C 88.164062 168.660156 88.050781 170.445312 88.351562 172.25 C 88.425781 172.703125 88.53125 173.152344 88.65625 173.59375 C 88.71875 173.820312 88.800781 174.050781 88.878906 174.277344 C 88.960938 174.5 89.058594 174.71875 89.152344 174.9375 C 89.546875 175.800781 90.058594 176.597656 90.679688 177.308594 C 91.300781 178.019531 92.03125 178.648438 92.867188 179.140625 C 93.703125 179.632812 94.65625 179.984375 95.65625 180.105469 C 95.90625 180.136719 96.15625 180.167969 96.40625 180.160156 C 96.660156 180.160156 96.910156 180.160156 97.15625 180.128906 C 97.644531 180.078125 98.117188 179.980469 98.5625 179.84375 C 99.457031 179.578125 100.238281 179.179688 100.953125 178.765625 C 101.671875 178.347656 102.308594 177.910156 102.941406 177.488281 C 103.574219 177.058594 104.203125 176.621094 104.820312 176.179688 C 106.054688 175.289062 107.253906 174.363281 108.394531 173.394531 C 110.667969 171.453125 112.707031 169.300781 114.296875 166.957031 C 114.992188 165.9375 115.628906 164.882812 116.183594 163.789062 C 116.476562 163.25 116.722656 162.691406 116.988281 162.140625 C 117.230469 161.582031 117.484375 161.023438 117.699219 160.457031 C 118.609375 158.195312 119.3125 155.878906 119.949219 153.558594 C 120.578125 151.234375 121.136719 148.910156 121.71875 146.59375 C 122.285156 144.3125 122.855469 142.03125 123.425781 139.75 C 125.328125 136.652344 127.230469 133.558594 129.136719 130.460938 L 132.023438 125.761719 L 133.488281 123.375 L 134.492188 121.746094 L 134.988281 120.933594 L 135.425781 120.222656 C 135.4375 120.195312 135.417969 120.179688 135.414062 120.15625 L 135.382812 120.148438 C 136.761719 119.269531 137.84375 118.054688 138.742188 116.660156 C 139.285156 115.808594 139.761719 114.898438 140.199219 113.957031 L 140.519531 113.25 L 140.597656 113.070312 L 140.632812 112.980469 C 140.648438 112.949219 140.652344 112.933594 140.6875 112.867188 L 141.003906 112.210938 C 141.421875 111.347656 141.804688 110.527344 142.15625 109.765625 C 141.433594 109.417969 140.714844 109.070312 140 108.730469 C 139.671875 108.574219 139.34375 108.417969 139.015625 108.261719 C 138.898438 108.214844 138.785156 108.167969 138.671875 108.117188 C 138.699219 108.078125 138.730469 108.039062 138.757812 107.996094 C 138.988281 107.695312 139.242188 107.320312 139.535156 106.863281 C 140.945312 104.746094 142.570312 102.742188 144.324219 100.828125 C 146.066406 98.902344 147.933594 97.0625 149.84375 95.246094 C 151.796875 93.429688 153.75 91.605469 155.710938 89.78125 C 156.683594 88.84375 157.65625 87.90625 158.632812 86.96875 C 159.589844 86.019531 160.550781 85.066406 161.511719 84.109375 C 169.148438 76.425781 176.375 68.257812 183.199219 59.84375 C 186.925781 55.253906 190.546875 50.570312 194.054688 45.800781 C 195.816406 43.417969 197.5625 40.953125 199.0625 38.273438 C 200.5625 35.609375 201.796875 32.675781 202.335938 29.515625 C 202.609375 27.9375 202.648438 26.308594 202.507812 24.703125 C 202.359375 23.09375 201.976562 21.539062 201.476562 20.054688 " fill-opacity="1" fill-rule="nonzero"></path></g></g></g></g></svg><style>@media (prefers-color-scheme: light) { :root { filter: none; } }
@media (prefers-color-scheme: dark) { :root { filter: invert(100%); } }
</style></svg>